# xmcd
#
# Track frame offsets:
#	150
#	10917
#	21660
#	36237
#	50605
#	63172
#	74272
#	87912
#	100937
#	113640
#	126825
#	139620
#	151780
#	166637
#	179927
#	193320
#	206920
#	218352
#	231790
#	241900
#	256080
#	270337
#	281007
#	291885
#	305082
#	317125
#
# Disc length: 4376 seconds
# Revision: 0
# Processed by: cddbd v1.5.2PL0 Copyright (c) Steve Scherf et al.
# Submitted via: dBpowerAMP V12.0
#
DISCID=7c11161a
DTITLE=Various Artist - Jumpin' Like Mad
DYEAR=1996
DGENRE=Blues
TTITLE0=Joe Turner - Jumpin' Tonight (Midnight Rockin')
TTITLE1=Calvin Boze - Safronia B
TTITLE2=Ella Mae Morse - Cow Cow Boogie
TTITLE3=Lester Young - Jumpin' With Symphony Sid
TTITLE4=Jesse Price - Jump It With a Shuffle
TTITLE5=Kay Starr - Oh Babe!
TTITLE6=Roy Brown - Stingy Blues
TTITLE7=Todd Rhodes - Blues For The Red Boy
TTITLE8=Lonnie Johnson - Hypin' Women Blues
TTITLE9=Nellie Lutcher - Fine Brown Frame
TTITLE10=Jesse Price - Baby, Let's Be Friends
TTITLE11=Helen Humes - Be Baba Leba
TTITLE12=Wynonie Harris - The Frim Fram Sauce
TTITLE13=Ella Mae Morse - Solid Potato Salad
TTITLE14=Eddie Vinson - Pork Chops and Mustard Greens
TTITLE15=Gene Ammons Quintet - Jack's Town
TTITLE16=Betty Hall Jones - This Joint's Too Hip for Me
TTITLE17=Lalo Guerrero - Marihuana Boogie
TTITLE18=Tiny Bradshaw And His Orchestra - Pachuko Hop
TTITLE19=Roy Brown - Juice Head Baby
TTITLE20=Wynonie Harris - Cheap Old Wine and Whiskey
TTITLE21=Calvin Boze - Looped
TTITLE22=Jimmy Liggins - I Ain't Drunk
TTITLE23=Big Jay McNeely - All That Wine Is Gone
TTITLE24=Louis Jordan - I Seen What'cha Done
TTITLE25=Jimmy Liggins - No More Alcohol
EXTD=
EXTT0=
EXTT1=
EXTT2=
EXTT3=
EXTT4=
EXTT5=
EXTT6=
EXTT7=
EXTT8=
EXTT9=
EXTT10=
EXTT11=
EXTT12=
EXTT13=
EXTT14=
EXTT15=
EXTT16=
EXTT17=
EXTT18=
EXTT19=
EXTT20=
EXTT21=
EXTT22=
EXTT23=
EXTT24=
EXTT25=
PLAYORDER=
